<svg xmlns="http://www.w3.org/2000/svg" viewBox="0 0 388.61 362.79"><defs><style>.cls-1{fill:#3565cf;}</style></defs><title>illustration-devices</title><g id="Layer_2" data-name="Layer 2"><g id="Layer_1-2" data-name="Layer 1"><path class="cls-1" d="M29.1,362.79A29.14,29.14,0,0,1,0,333.69V94.16a29.14,29.14,0,0,1,29.1-29.1h101a29.14,29.14,0,0,1,29.1,29.1V333.69a29.14,29.14,0,0,1-29.1,29.1ZM7.87,332.86a22.07,22.07,0,0,0,22,22.06h99.46a22.07,22.07,0,0,0,22-22.06V306.51H7.87Zm0-34.22h143.5V129.09H7.87Zm22-225.75a22.07,22.07,0,0,0-22,22.06v26.27H151.33V94.95a22.07,22.07,0,0,0-22-22.06ZM169.27,362.76v-7.87H358.72c12.37,0,22.06-9.45,22.06-21.51V310.8H178v-7.87H380.78V68.48H168.6V60.61H380.78V30A22.09,22.09,0,0,0,358.72,8H146.78A22.09,22.09,0,0,0,124.72,30V49h-8.15V29.1A29.14,29.14,0,0,1,145.68,0H359.51a29.14,29.14,0,0,1,29.1,29.1V333.65a29.14,29.14,0,0,1-29.1,29.1Zm88-23.38a8.09,8.09,0,1,1,8.09-8.09A8.1,8.1,0,0,1,257.26,339.38Zm-178.33,0A8.09,8.09,0,1,1,87,331.29,8.1,8.1,0,0,1,78.93,339.38ZM59.69,99.45a3.52,3.52,0,1,1,0-7H98.18a3.52,3.52,0,1,1,0,7ZM234.43,36.84a3.52,3.52,0,1,1,0-7h38.49a3.48,3.48,0,0,1,3.52,3.52,3.53,3.53,0,0,1-3.52,3.52Z"/></g></g></svg>