<svg xmlns="http://www.w3.org/2000/svg" viewBox="0 0 290 393.99"><defs><style>.cls-1{fill:#999;}</style></defs><title>illustration-permissions</title><g id="Layer_2" data-name="Layer 2"><g id="Layer_1-2" data-name="Layer 1"><path class="cls-1" d="M210.46,394c-5.39,0-10-5-13.07-8.78l-22.45-26.94c-5.09-6.37-5.11-10.91,0-17.31l.11-.14,13.56-20.25-18.24-29.88L167,292.1a68.21,68.21,0,0,1-24.66,5,41.3,41.3,0,0,1-10.53-1.26l-2.31-.61-63,58.5c-3.45,3.45-17.76,8.85-22.1,8.85H21.93c-9.87,0-21.93-8-21.93-17.44V309.22a17.46,17.46,0,0,1,17.44-17.44H35.91v-9.49c0-9.87,8-21.93,17.44-21.93H71.54l4.82-4.86-.64-2.41c-5.09-19-8.38-33.95-8.38-38.14,0-31,19.64-68.54,62.75-77.56a80.72,80.72,0,0,1,25.68-1.13l1.86.21,1.43-1.2A79.06,79.06,0,0,1,236,121.15l5,1.74.72-5.24a77.21,77.21,0,0,0,.72-10.44c0-53.15-41.63-94.79-94.79-94.79a94.89,94.89,0,0,0-94.79,94.79c0,16,1.48,36.42,12.84,53.14l.58,9.2H58.1c-11.42-16.2-17.71-38.32-17.71-62.34C40.39,49.1,89.5,0,147.62,0S254.83,49.1,254.83,107.21a100,100,0,0,1-1.77,19.07l-.53,2.78,2.33,1.6c36.11,24.83,45.78,70.6,22.51,106.46-6.53,10-17.33,19.84-25.25,25.67l-1.76,1.3v84.52a17.76,17.76,0,0,1-4,10.82l-22.77,25.76C220.44,389.06,215.87,394,210.46,394ZM182,348.6l28.15,35,27.06-33.41V257.93c8.87-5,23.25-15.64,30.73-27.16,17.53-27,11.06-62.75-15.39-85l-4.52-3.8-2.26,5.45a107.32,107.32,0,0,1-17.58,28.74l-1,1.16,0,1.53a17.06,17.06,0,0,1-2.49,9.13,18.11,18.11,0,1,1-30.37-19.74,17.77,17.77,0,0,1,15-8.08,18.48,18.48,0,0,1,9.1,2.41l3.39,1.92,2.27-3.17a94.5,94.5,0,0,0,11.62-21.43l1.53-4.05-4.05-1.53A65.63,65.63,0,0,0,210,129.85c-23.61,0-45.47,11.06-57,28.87A67,67,0,0,0,143.65,209a65.66,65.66,0,0,0,28.55,42.29c8.36,5.44,17,11,29.45,12.54v3.47l-19.12,23.91,22.43,29.26Zm-168.92.87H50.58l75.8-71.34A109.47,109.47,0,0,0,152,281.61c11.07,0,19.53-2.49,25.14-7.42l4.9-4.3L176.2,267a78.63,78.63,0,0,1-33.72-110.94l4.59-7.86-9,1.4-1.51.22c-1.25.18-2.49.36-3.75.62A66.3,66.3,0,0,0,82,229.1l.58,2.78c2,9.41,4.16,19.93,9.45,27.74L79,273.47H49v31.42H13.11Z"/></g></g></svg>