<svg xmlns="http://www.w3.org/2000/svg" viewBox="0 0 379 145.95"><defs><style>.cls-1{fill:#3565cf;}.cls-2{fill:#bcd0fa;}</style></defs><title>illustration-pco-api</title><g id="Layer_2" data-name="Layer 2"><g id="Layer_1-2" data-name="Layer 1"><path class="cls-1" d="M189.08,145.95a43.59,43.59,0,0,1-12.51-1.84l-40.48-12a27.44,27.44,0,0,1-19.3-26.31V40.21a27.44,27.44,0,0,1,19.3-26.31l.08,0,40.41-12a43.47,43.47,0,0,1,25,0L242,13.9a27.4,27.4,0,0,1,19.35,26.27v65.62a27.44,27.44,0,0,1-19.3,26.31l-.08,0-40.41,12A43.54,43.54,0,0,1,189.08,145.95ZM139.51,121l40.36,12a32,32,0,0,0,18.39,0l40.38-12a15.92,15.92,0,0,0,11.15-15.26V40.16a15.89,15.89,0,0,0-11.2-15.22l-40.33-12a32,32,0,0,0-18.38,0l-40.37,12a15.92,15.92,0,0,0-11.16,15.26v65.57A15.92,15.92,0,0,0,139.51,121Z"/><path class="cls-1" d="M224.41,83a9.53,9.53,0,0,1-6.81,9.16L194,99.2a16.9,16.9,0,0,1-9.7,0l-15.92-4.78a.91.91,0,0,0-1.17.86v10.78a3.4,3.4,0,0,1-4.37,3.25l-6.67-2a3.4,3.4,0,0,1-2.39-3.25v-50A9.56,9.56,0,0,1,166,44.94L186.75,51a7.54,7.54,0,0,0,4.46,0L212,44.49a9.54,9.54,0,0,1,12.4,9.11ZM209.26,59.2,194.11,64a16.84,16.84,0,0,1-10,.09l-15.24-4.6a1.3,1.3,0,0,0-1.62,1.26V79.26a1.22,1.22,0,0,0,.9,1.22l18.63,5.59a7.48,7.48,0,0,0,4.55,0l18.76-6a1.3,1.3,0,0,0,.9-1.22V60.41A1.3,1.3,0,0,0,209.26,59.2Z"/><polygon class="cls-1" points="367.01 77.81 261.36 77.81 261.36 70.81 360.01 70.81 360.01 43.47 367.01 43.47 367.01 77.81"/><polygon class="cls-1" points="18.14 105.15 11.14 105.15 11.14 70.81 116.8 70.81 116.8 77.81 18.14 77.81 18.14 105.15"/><path class="cls-1" d="M15.06,131.77A15.06,15.06,0,1,1,30.13,116.7,15.08,15.08,0,0,1,15.06,131.77Zm0-23.13a8.06,8.06,0,1,0,8.07,8.06A8.07,8.07,0,0,0,15.06,108.64Z"/><path class="cls-1" d="M363.94,46.61A15.06,15.06,0,1,1,379,31.55,15.08,15.08,0,0,1,363.94,46.61Zm0-23.13A8.06,8.06,0,1,0,372,31.55,8.07,8.07,0,0,0,363.94,23.48Z"/><circle class="cls-2" cx="65.44" cy="74.31" r="11.56"/><path class="cls-1" d="M65.44,89.37A15.06,15.06,0,1,1,80.51,74.31,15.08,15.08,0,0,1,65.44,89.37Zm0-23.13a8.06,8.06,0,1,0,8.06,8.06A8.07,8.07,0,0,0,65.44,66.24Z"/></g></g></svg>