<svg xmlns="http://www.w3.org/2000/svg" viewBox="0 0 372.47 394.32"><defs><style>.cls-1{fill:#2565f4;}.cls-2{fill:none;stroke:#2565f4;stroke-linejoin:round;stroke-width:7px;}</style></defs><title>illustration-church</title><g id="Layer_2" data-name="Layer 2"><g id="Layer_1-2" data-name="Layer 1"><rect class="cls-1" x="26.96" y="231.27" width="7.5" height="145.48"/><polygon class="cls-1" points="337.97 231.27 338 376.76 345.52 376.76 345.52 231.27 337.97 231.27"/><path class="cls-1" d="M371.23,394.32H0V370.49H371.23ZM7.52,386.79H363.71V378H7.52Z"/><path class="cls-1" d="M173.07,13.8a3.76,3.76,0,1,0,0,7.52h9.41V46.4a3.76,3.76,0,0,0,7.52,0l.31-25.08h9.09a3.76,3.76,0,0,0,0-7.52H190v-10a3.76,3.76,0,0,0-7.52,0v10Z"/><path class="cls-1" d="M371.92,232.2l-27-45.8a4,4,0,0,0-3.41-1.92H292l-7.21,0H250.21v-76.3l-7.52.63V230.65H129.81V108.76l-7.52-.63v76.3H87.69l-7.21,0H31a4,4,0,0,0-3.41,1.92l-27,45.8a4,4,0,0,0,0,4,3.91,3.91,0,0,0,3.41,2H368.55a3.91,3.91,0,0,0,3.41-2A4,4,0,0,0,371.92,232.2Zm-249.66-1.32H9.75l23.13-39.18h89.53Zm127.92,0V191.69h89.42l23.13,39.18Z"/><path class="cls-1" d="M201.92,198.67H170.57a3.76,3.76,0,0,1-3.76-3.76v-32a19.44,19.44,0,0,1,38.88,0v32A3.76,3.76,0,0,1,201.92,198.67Zm-27.59-7.52h23.83V162.92a11.91,11.91,0,1,0-23.83,0Z"/><path class="cls-1" d="M186,268.9c-19.71,0-35.74,14.37-35.74,32v75.82h7.52V300.94c0-13.52,12.66-24.52,28.22-24.52s28.22,11,28.22,24.52v75.82h7.52V300.94C221.71,283.27,205.68,268.9,186,268.9Z"/><rect class="cls-1" x="182.21" y="272.66" width="7.52" height="101.59"/><path class="cls-1" d="M110.41,339.13H79.05a3.76,3.76,0,0,1-3.76-3.76v-32a19.44,19.44,0,1,1,38.88,0v32A3.76,3.76,0,0,1,110.41,339.13Zm-27.59-7.52h23.83V303.39a11.91,11.91,0,1,0-23.83,0Z"/><path class="cls-1" d="M294.77,339.13H263.42a3.76,3.76,0,0,1-3.76-3.76v-32a19.44,19.44,0,0,1,38.88,0v32A3.76,3.76,0,0,1,294.77,339.13Zm-27.59-7.52H291V303.39a11.91,11.91,0,1,0-23.83,0Z"/><polygon class="cls-2" points="186.23 88 276.73 118 186.23 48 95.73 118 186.23 88"/></g></g></svg>
