<?xml version="1.0" encoding="utf-8"?>
<!DOCTYPE svg PUBLIC "-//W3C//DTD SVG 1.1//EN" "http://www.w3.org/Graphics/SVG/1.1/DTD/svg11.dtd">
<svg version="1.1" xmlns="http://www.w3.org/2000/svg" xmlns:xlink="http://www.w3.org/1999/xlink" x="0px" y="0px" width="16px" height="16px" viewBox="0 0 16 16" enable-background="new 0 0 16 16" xml:space="preserve">
  <style type="text/css">
    .st0{fill:#FFFFFF;}
  </style>
  <g>
    <path d="M5.004,8.045H4.985c-0.022,0-0.04-0.018-0.04-0.039l0-0.997c0-0.028-0.025-0.053-0.053-0.053H4.763
      c-0.028,0-0.053,0.025-0.053,0.053v1.12c0,0.084,0.069,0.153,0.153,0.153h0.14c0.02,0,0.036-0.016,0.036-0.036V8.081
      C5.04,8.061,5.024,8.045,5.004,8.045z" class="st0" />
    <path d="M5.547,7.332c-0.183,0-0.316,0.052-0.316,0.053c-0.029,0.01-0.043,0.034-0.036,0.064l0.018,0.084
      c0.009,0.034,0.033,0.05,0.062,0.043c0.035-0.01,0.142-0.04,0.251-0.04c0.046,0,0.077,0.009,0.096,0.029
      c0.025,0.025,0.035,0.068,0.035,0.147C5.63,7.704,5.563,7.688,5.488,7.688c-0.223,0-0.373,0.122-0.373,0.303
      c0,0.188,0.122,0.314,0.303,0.314c0.104,0,0.194-0.035,0.275-0.108L5.71,8.244C5.719,8.267,5.73,8.282,5.757,8.282h0.064
      c0.028,0,0.053-0.025,0.053-0.053V7.745C5.874,7.519,5.849,7.332,5.547,7.332z M5.655,8.017C5.626,8.062,5.544,8.123,5.46,8.123
      c-0.076,0-0.129-0.056-0.129-0.135c0-0.085,0.068-0.14,0.174-0.14c0.071,0,0.129,0.021,0.149,0.032V8.017z" class="st0" />
    <path d="M6.502,7.332c-0.166,0-0.278,0.087-0.313,0.119L6.166,7.389C6.16,7.368,6.142,7.354,6.121,7.354H6.055
      c-0.028,0-0.053,0.025-0.053,0.053v0.821c0,0.028,0.025,0.053,0.053,0.053h0.118c0.042,0,0.062-0.017,0.062-0.053V7.677
      c0.013-0.032,0.109-0.128,0.242-0.128c0.115,0,0.178,0.076,0.178,0.215v0.465c0,0.029,0.024,0.053,0.053,0.053h0.129
      c0.028,0,0.053-0.025,0.053-0.053V7.773C6.89,7.492,6.749,7.332,6.502,7.332z" class="st0" />
    <path d="M7.543,7.332c-0.166,0-0.278,0.087-0.313,0.119L7.207,7.389C7.201,7.368,7.183,7.354,7.161,7.354H7.096
      c-0.028,0-0.053,0.025-0.053,0.053v0.821c0,0.028,0.025,0.053,0.053,0.053h0.118c0.042,0,0.062-0.017,0.062-0.053V7.677
      c0.013-0.032,0.109-0.128,0.242-0.128c0.115,0,0.178,0.076,0.178,0.215v0.465c0,0.029,0.024,0.053,0.053,0.053h0.129
      c0.028,0,0.053-0.025,0.053-0.053V7.773C7.931,7.492,7.79,7.332,7.543,7.332z" class="st0" />
    <circle cx="8.211" cy="7.076" r="0.142" class="st0" />
    <path d="M8.278,7.354H8.149c-0.028,0-0.053,0.025-0.053,0.053v0.821c0,0.028,0.025,0.053,0.053,0.053h0.129
      c0.028,0,0.053-0.025,0.053-0.053V7.407C8.331,7.379,8.306,7.354,8.278,7.354z" class="st0" />
    <path d="M9.002,7.332c-0.167,0-0.278,0.087-0.313,0.119L8.666,7.389C8.66,7.368,8.642,7.354,8.62,7.354H8.555
      c-0.028,0-0.053,0.025-0.053,0.053v0.821c0,0.028,0.025,0.053,0.053,0.053h0.118c0.042,0,0.062-0.017,0.062-0.053V7.677
      c0.013-0.032,0.109-0.128,0.242-0.128c0.115,0,0.178,0.076,0.178,0.215v0.465c0,0.029,0.024,0.053,0.053,0.053h0.129
      c0.028,0,0.053-0.025,0.053-0.053V7.773C9.39,7.389,9.147,7.332,9.002,7.332z" class="st0" />
    <path d="M11.59,7.983C11.59,7.983,11.59,7.983,11.59,7.983c-0.026-0.02-0.051-0.018-0.074,0.005
      c-0.005,0.004-0.009,0.009-0.014,0.014c-0.044,0.043-0.09,0.088-0.19,0.088c-0.141,0-0.251-0.119-0.251-0.271
      c0-0.151,0.111-0.269,0.253-0.269c0.062,0,0.127,0.031,0.175,0.084l0.004,0.004c0.016,0.015,0.039,0.035,0.07,0.005l0.074-0.068
      c0.012-0.009,0.02-0.022,0.022-0.036c0.002-0.015-0.002-0.029-0.011-0.041c-0.089-0.111-0.199-0.165-0.337-0.165
      c-0.264,0-0.486,0.224-0.486,0.488c0,0.267,0.217,0.484,0.484,0.484c0.153,0,0.281-0.069,0.36-0.195
      c0.018-0.025,0.011-0.054-0.018-0.077L11.59,7.983z" class="st0" />
    <path d="M12.173,7.332c-0.264,0-0.464,0.209-0.464,0.486s0.2,0.486,0.466,0.486c0.13,0,0.258-0.043,0.342-0.116
      c0.014-0.011,0.021-0.023,0.022-0.035c0.001-0.016-0.008-0.028-0.016-0.037L12.459,8.03c-0.024-0.03-0.047-0.016-0.074,0
      c-0.037,0.024-0.111,0.064-0.197,0.064c-0.143,0-0.239-0.114-0.25-0.223h0.606c0.026,0,0.048-0.02,0.051-0.047
      C12.598,7.807,12.6,7.777,12.6,7.761C12.6,7.516,12.416,7.332,12.173,7.332z M11.95,7.708c0.018-0.106,0.109-0.182,0.22-0.182
      c0.1,0,0.186,0.081,0.198,0.182H11.95z" class="st0" />
    <path d="M13.228,7.332c-0.166,0-0.278,0.088-0.313,0.119l-0.022-0.062c-0.006-0.021-0.024-0.034-0.046-0.034h-0.066
      c-0.028,0-0.053,0.025-0.053,0.053v0.821c0,0.028,0.025,0.053,0.053,0.053h0.118c0.042,0,0.062-0.017,0.062-0.053V7.677
      c0.013-0.032,0.109-0.128,0.242-0.128c0.115,0,0.178,0.076,0.178,0.215v0.465c0,0.029,0.024,0.053,0.053,0.053h0.129
      c0.028,0,0.053-0.025,0.053-0.053V7.773C13.617,7.492,13.475,7.332,13.228,7.332z" class="st0" />
    <path d="M14.29,8.068C14.29,8.068,14.29,8.068,14.29,8.068c-0.005-0.01-0.012-0.024-0.027-0.03
      c-0.011-0.004-0.024-0.003-0.039,0.004c-0.037,0.018-0.094,0.04-0.134,0.04c-0.034,0-0.063-0.006-0.063-0.081V7.562h0.222
      c0.029,0,0.053-0.024,0.053-0.053V7.407c0-0.03-0.023-0.053-0.053-0.053h-0.222V7.076c0-0.029-0.023-0.053-0.051-0.053
      l-0.129,0.002c-0.028,0-0.053,0.025-0.053,0.053v0.276h-0.085c-0.03,0-0.053,0.023-0.053,0.053v0.102
      c0,0.029,0.024,0.053,0.053,0.053h0.085v0.462c0,0.12,0.025,0.28,0.241,0.28c0.115,0,0.25-0.057,0.27-0.069
      c0.029-0.014,0.038-0.039,0.025-0.067L14.29,8.068z" class="st0" />
    <path d="M14.815,7.332c-0.264,0-0.464,0.209-0.464,0.486s0.2,0.486,0.466,0.486c0.13,0,0.258-0.043,0.342-0.116
      c0.014-0.011,0.021-0.023,0.022-0.035c0.001-0.016-0.008-0.028-0.016-0.037L15.101,8.03c-0.024-0.03-0.047-0.016-0.074,0
      c-0.037,0.024-0.112,0.064-0.197,0.064c-0.143,0-0.239-0.114-0.25-0.223h0.606c0.026,0,0.048-0.02,0.051-0.047
      c0.002-0.016,0.005-0.046,0.005-0.063C15.242,7.516,15.058,7.332,14.815,7.332z M14.812,7.526c0.1,0,0.186,0.081,0.198,0.182
      h-0.418C14.61,7.602,14.701,7.526,14.812,7.526z" class="st0" />
    <path d="M15.955,7.382c-0.025-0.037-0.105-0.05-0.171-0.05c-0.145,0-0.23,0.082-0.262,0.121l-0.019-0.059
      c-0.005-0.022-0.027-0.039-0.048-0.039h-0.066c-0.028,0-0.053,0.025-0.053,0.053v0.821c0,0.028,0.025,0.053,0.053,0.053h0.109
      c0.027,0,0.071,0,0.071-0.053V7.655c0.01-0.016,0.07-0.104,0.194-0.104c0.028,0,0.06,0.009,0.073,0.015
      c0.028,0.012,0.055,0.002,0.067-0.025l0.055-0.112C15.966,7.412,15.965,7.396,15.955,7.382z" class="st0" />
    <path d="M10.398,7.357h-0.09c-0.019,0-0.031,0.009-0.041,0.029c0,0.001-0.001,0.002-0.001,0.003l-0.012,0.065
      C10.21,7.408,10.11,7.332,9.952,7.332c-0.261,0-0.458,0.226-0.458,0.525c0,0.296,0.201,0.52,0.468,0.52
      c0.08,0,0.165-0.023,0.24-0.065l0.002,0.018c0.005,0.066-0.015,0.119-0.06,0.168c-0.057,0.061-0.138,0.091-0.248,0.091
      c-0.088,0-0.174-0.043-0.218-0.068C9.659,8.509,9.633,8.515,9.622,8.535l-0.05,0.098C9.561,8.651,9.567,8.674,9.585,8.687
      c0.029,0.02,0.178,0.119,0.359,0.119c0.004,0,0.009,0,0.013,0c0.287-0.008,0.488-0.189,0.488-0.441V7.403
      C10.444,7.378,10.423,7.357,10.398,7.357z M10.158,8.124c-0.036,0.018-0.095,0.04-0.166,0.04c-0.158,0-0.268-0.126-0.268-0.307
      c0-0.185,0.104-0.31,0.258-0.31c0.127,0,0.196,0.088,0.214,0.115c0.01,0.015,0.016,0.034,0.016,0.054v0.321
      C10.212,8.074,10.191,8.108,10.158,8.124z" class="st0" />
    <path d="M4.154,7.282c-0.158,0-0.257,0.076-0.305,0.121L3.84,7.339c0-0.001,0-0.002-0.001-0.003
      c-0.009-0.02-0.022-0.029-0.041-0.029h-0.09c-0.025,0-0.046,0.022-0.046,0.047v1.351c0,0.028,0.025,0.053,0.053,0.053h0.132
      c0.035,0,0.057-0.021,0.057-0.053V8.262c0.075,0.042,0.16,0.065,0.24,0.065c0.267,0,0.468-0.223,0.468-0.52
      C4.612,7.508,4.415,7.282,4.154,7.282z M3.894,7.666c0-0.02,0.005-0.038,0.016-0.054c0.018-0.027,0.087-0.115,0.214-0.115
      c0.154,0,0.258,0.124,0.258,0.31c0,0.181-0.11,0.307-0.268,0.307c-0.072,0-0.13-0.022-0.166-0.04
      c-0.033-0.016-0.054-0.05-0.054-0.087V7.666z" class="st0" />
  </g>
  <g>
    <path d="M2.649,6.709L1.754,6.442c-0.157-0.047-0.324-0.047-0.481,0L0.377,6.709c-0.201,0.063-0.338,0.25-0.338,0.461v1.454
      c0,0.211,0.137,0.398,0.338,0.461l0.896,0.266c0.157,0.047,0.324,0.047,0.481,0l0.896-0.266c0.201-0.063,0.338-0.25,0.338-0.461
      V7.169C2.988,6.958,2.851,6.772,2.649,6.709z M2.297,8.119c0,0.094-0.061,0.176-0.151,0.203L1.622,8.478
      c-0.07,0.021-0.145,0.021-0.215,0L1.054,8.372C1.041,8.368,1.028,8.378,1.028,8.391V8.63c0,0.05-0.048,0.086-0.097,0.072
      L0.783,8.658C0.752,8.649,0.73,8.619,0.73,8.586l0-1.108c0-0.141,0.136-0.243,0.272-0.203L1.462,7.41
      c0.032,0.01,0.067,0.009,0.099-0.001l0.461-0.144c0.136-0.043,0.275,0.059,0.275,0.202V8.119z" class="st0" />
    <path d="M1.961,7.591L1.625,7.698C1.553,7.721,1.476,7.722,1.403,7.7L1.065,7.598C1.047,7.593,1.029,7.607,1.029,7.626l0,0.41
      c0,0.013,0.008,0.024,0.02,0.027l0.413,0.124c0.033,0.01,0.068,0.01,0.101-0.001l0.416-0.133c0.012-0.004,0.02-0.015,0.02-0.027
      V7.618C1.998,7.598,1.98,7.585,1.961,7.591z" class="st0" />
  </g>
</svg>
